<?xml version="1.0" encoding="UTF-8" standalone="no"?>
<!-- Created with Inkscape (http://www.inkscape.org/) -->

<svg
   width="187mm"
   height="54mm"
   viewBox="0 0 187 54"
   version="1.1"
   id="svg5"
   inkscape:version="1.1 (c68e22c387, 2021-05-23)"
   sodipodi:docname="cryptodash_logo.svg"
   inkscape:export-filename="C:\Users\logan\cryptodash_logo.png"
   inkscape:export-xdpi="37.629631"
   inkscape:export-ydpi="37.629631"
   xmlns:inkscape="http://www.inkscape.org/namespaces/inkscape"
   xmlns:sodipodi="http://sodipodi.sourceforge.net/DTD/sodipodi-0.dtd"
   xmlns="http://www.w3.org/2000/svg"
   xmlns:svg="http://www.w3.org/2000/svg">
  <sodipodi:namedview
     id="namedview7"
     pagecolor="#3a3360"
     bordercolor="#666666"
     borderopacity="1.0"
     inkscape:pageshadow="2"
     inkscape:pageopacity="0"
     inkscape:pagecheckerboard="false"
     inkscape:document-units="mm"
     showgrid="false"
     inkscape:zoom="1.0482005"
     inkscape:cx="358.23299"
     inkscape:cy="94.924587"
     inkscape:window-width="1920"
     inkscape:window-height="1017"
     inkscape:window-x="-8"
     inkscape:window-y="-8"
     inkscape:window-maximized="1"
     inkscape:current-layer="layer1" />
  <defs
     id="defs2">
    <rect
       x="206.4249"
       y="366.30301"
       width="246.90036"
       height="89.046036"
       id="rect21389" />
  </defs>
  <g
     inkscape:label="Layer 1"
     inkscape:groupmode="layer"
     id="layer1">
    <g
       id="g19185"
       transform="matrix(1.2019122,0,0,1.2019122,-22.035059,-100.15586)">
      <path
         id="path4985"
         style="fill:none;stroke:#ffffff;stroke-width:1.8;stroke-linecap:round;stroke-linejoin:round;stroke-miterlimit:4;stroke-dasharray:none;stroke-opacity:1"
         d="m 42.565299,97.936754 4.908721,2.842946 -0.01741,6.04526 m -5.322359,8.53597 -4.867502,2.80145 -4.843265,-2.83182 m -5.297563,-8.57147 -2.4e-5,-6.05305 4.780851,-2.73428"
         sodipodi:nodetypes="ccccccccc" />
      <path
         id="path4985-3"
         style="fill:none;fill-opacity:1;stroke:#ffffff;stroke-width:1.85178;stroke-linecap:round;stroke-linejoin:round;stroke-miterlimit:4;stroke-dasharray:none;stroke-opacity:1"
         d="m 30.655037,110.3345 -4.950975,-2.72877 m 4.950975,8.52252 v -5.79375 l 4.983371,-2.69282 m -9.934346,-0.036 4.967168,-2.84084 4.967178,2.8768 -0.01621,5.62774 -4.967177,2.85882 -4.950936,-2.89478 z" />
      <path
         id="path4985-3-4"
         style="fill:none;fill-opacity:1;stroke:#ffffff;stroke-width:1.85177;stroke-linecap:round;stroke-linejoin:round;stroke-miterlimit:4;stroke-dasharray:none;stroke-opacity:1"
         d="m 43.901304,110.3345 -4.950966,-2.72877 m 4.950966,8.5225 v -5.79373 l 4.983361,-2.69281 m -9.934327,-0.036 4.967159,-2.84082 4.967168,2.87679 -0.01625,5.62772 -4.967167,2.85882 -4.950928,-2.89477 z" />
      <path
         id="path4985-3-5"
         style="fill:none;fill-opacity:1;stroke:#ffffff;stroke-width:1.85178;stroke-linecap:round;stroke-linejoin:round;stroke-miterlimit:4;stroke-dasharray:none;stroke-opacity:1"
         d="m 37.283756,98.742469 -4.950975,-2.728766 m 4.950975,8.522517 v -5.793751 l 4.983371,-2.692803 m -9.934346,-0.03597 4.967168,-2.840839 4.967178,2.876802 -0.01621,5.627741 -4.967177,2.85881 -4.950936,-2.89478 z" />
    </g>
    <g
       aria-label="CryptoDash"
       transform="matrix(0.61322328,0,0,0.61322328,-74.17284,-208.11985)"
       id="text21387"
       style="font-size:29.3333px;line-height:1.25;white-space:pre;shape-inside:url(#rect21389)">
      <path
         d="m 222.50043,395.19603 h -7.15733 q -3.66666,0 -5.45599,-1.46666 -1.76,-1.46667 -1.76,-4.51733 v -9.12265 q 0,-3.05067 1.76,-4.51733 1.78933,-1.496 5.45599,-1.496 h 7.15733 q 0.55733,0 0.792,0.264 0.264,0.23466 0.264,0.792 v 3.54933 q 0,0.55733 -0.264,0.82133 -0.23467,0.23467 -0.792,0.23467 h -5.89599 q -0.90934,0 -1.34934,0.38133 -0.44,0.352 -0.44,1.08533 v 6.98133 q 0,0.73333 0.44,1.08533 0.44,0.32266 1.34934,0.32266 h 5.89599 q 0.55733,0 0.792,0.264 0.264,0.23467 0.264,0.792 v 3.49067 q 0,0.55733 -0.264,0.82133 -0.23467,0.23466 -0.792,0.23466 z"
         style="font-family:Bungee;-inkscape-font-specification:Bungee;fill:#ffffff"
         id="path830" />
      <path
         d="m 233.50037,379.35605 v 3.75467 h 2.2 q 0.76266,0 1.02666,-0.38134 0.264,-0.41066 0.264,-0.99733 v -0.99733 q 0,-0.58667 -0.264,-0.968 -0.264,-0.41067 -1.02666,-0.41067 z m -1.056,15.83998 h -4.51733 q -0.55733,0 -0.82133,-0.23466 -0.23467,-0.264 -0.23467,-0.82133 v -19.00798 q 0,-0.55734 0.23467,-0.792 0.264,-0.264 0.82133,-0.264 h 9.76799 q 3.28533,0 4.51733,1.37866 1.26133,1.34934 1.26133,3.52 v 1.34933 q 0,1.232 -0.38133,2.112 -0.352,0.85066 -1.26133,1.232 1.58399,0.176 2.55199,1.29066 0.99734,1.11467 0.99734,2.96267 v 6.21866 q 0,0.55733 -0.264,0.82133 -0.23467,0.23466 -0.792,0.23466 h -4.54666 q -0.55734,0 -0.82134,-0.23466 -0.23466,-0.264 -0.23466,-0.82133 v -4.488 q 0,-0.64533 -0.264,-0.93866 -0.23467,-0.32267 -0.85067,-0.32267 h -4.10666 v 5.74933 q 0,0.55733 -0.264,0.82133 -0.23467,0.23466 -0.792,0.23466 z"
         style="font-family:Bungee;-inkscape-font-specification:Bungee;fill:#ffffff"
         id="path832" />
      <path
         d="m 258.49226,395.19603 h -4.75199 q -0.55733,0 -0.82133,-0.23466 -0.23467,-0.264 -0.23467,-0.82133 v -3.75467 l -4.48799,-6.01332 q -0.67467,-0.90934 -0.90934,-1.584 -0.20533,-0.67467 -0.20533,-2.024 v -5.63199 q 0,-0.55734 0.23467,-0.792 0.264,-0.264 0.82133,-0.264 h 4.51733 q 0.55733,0 0.792,0.264 0.264,0.23466 0.264,0.792 v 4.81066 q 0,0.29333 0.0293,0.616 0.0293,0.32266 0.23467,0.616 l 1.34933,2.11199 q 0.14666,0.264 0.29333,0.38134 0.176,0.11733 0.41067,0.11733 h 0.29333 q 0.23467,0 0.38133,-0.11733 0.176,-0.11734 0.32267,-0.38134 l 1.34933,-2.11199 q 0.20533,-0.29334 0.23467,-0.616 0.0293,-0.32267 0.0293,-0.616 v -4.81066 q 0,-0.55734 0.23467,-0.792 0.264,-0.264 0.82133,-0.264 h 4.37066 q 0.55733,0 0.792,0.264 0.264,0.23466 0.264,0.792 v 5.63199 q 0,1.34933 -0.23467,2.024 -0.23466,0.67466 -0.88,1.584 l -4.45866,6.04266 v 3.72533 q 0,0.55733 -0.264,0.82133 -0.23466,0.23466 -0.792,0.23466 z"
         style="font-family:Bungee;-inkscape-font-specification:Bungee;fill:#ffffff"
         id="path834" />
      <path
         d="m 274.06825,395.19603 h -4.54666 q -0.55734,0 -0.82134,-0.23466 -0.23466,-0.264 -0.23466,-0.82133 v -19.00798 q 0,-0.55734 0.23466,-0.792 0.264,-0.264 0.82134,-0.264 h 8.97599 q 3.98932,0 5.45599,1.584 1.46666,1.584 1.46666,4.13599 v 3.75466 q 0,2.552 -1.46666,4.136 -1.46667,1.584 -5.45599,1.584 h -3.37333 v 4.86933 q 0,0.55733 -0.264,0.82133 -0.23467,0.23466 -0.792,0.23466 z m 0.99733,-15.63464 v 4.42932 h 2.64 q 0.85066,0 1.11466,-0.44 0.264,-0.43999 0.264,-0.99733 v -1.55466 q 0,-0.55734 -0.264,-0.99733 -0.264,-0.44 -1.11466,-0.44 z"
         style="font-family:Bungee;-inkscape-font-specification:Bungee;fill:#ffffff"
         id="path836" />
      <path
         d="m 298.4442,395.19603 h -4.752 q -0.55733,0 -0.82133,-0.23466 -0.23467,-0.264 -0.23467,-0.82133 v -14.40265 h -4.31199 q -0.55733,0 -0.82133,-0.23467 -0.23467,-0.264 -0.23467,-0.82133 v -3.54933 q 0,-0.55734 0.23467,-0.792 0.264,-0.264 0.82133,-0.264 h 15.48798 q 0.55733,0 0.792,0.264 0.264,0.23466 0.264,0.792 v 3.54933 q 0,0.55733 -0.264,0.82133 -0.23467,0.23467 -0.792,0.23467 h -4.312 v 14.40265 q 0,0.55733 -0.26399,0.82133 -0.23467,0.23466 -0.792,0.23466 z"
         style="font-family:Bungee;-inkscape-font-specification:Bungee;fill:#ffffff"
         id="path838" />
      <path
         d="m 325.46008,389.65204 q 0,1.34933 -0.41067,2.464 -0.38133,1.08533 -1.40799,1.87733 -0.99734,0.76267 -2.78667,1.20266 -1.76,0.44 -4.48799,0.44 -2.728,0 -4.51733,-0.44 -1.78933,-0.43999 -2.816,-1.20266 -0.99733,-0.792 -1.408,-1.87733 -0.38133,-1.11467 -0.38133,-2.464 v -10.00265 q 0,-1.34934 0.38133,-2.43467 0.41067,-1.11466 1.408,-1.90666 1.02667,-0.792 2.816,-1.232 1.78933,-0.44 4.51733,-0.44 2.72799,0 4.48799,0.44 1.78933,0.44 2.78667,1.232 1.02666,0.792 1.40799,1.90666 0.41067,1.08533 0.41067,2.43467 z m -11.55732,-1.056 q 0,0.58667 0.44,0.99733 0.44,0.38134 2.024,0.38134 1.584,0 2.024,-0.38134 0.44,-0.41066 0.44,-0.99733 v -7.89066 q 0,-0.55733 -0.44,-0.93866 -0.44,-0.41067 -2.024,-0.41067 -1.584,0 -2.024,0.41067 -0.44,0.38133 -0.44,0.93866 z"
         style="font-family:Bungee;-inkscape-font-specification:Bungee;fill:#ffffff"
         id="path840" />
      <path
         d="m 340.12671,395.19603 h -9.88532 q -0.55733,0 -0.82133,-0.23466 -0.23467,-0.264 -0.23467,-0.82133 v -19.00798 q 0,-0.55734 0.23467,-0.792 0.264,-0.264 0.82133,-0.264 h 9.88532 q 3.66666,0 5.42666,1.46666 1.78933,1.46667 1.78933,4.51733 v 9.15199 q 0,3.05066 -1.78933,4.51733 -1.76,1.46666 -5.42666,1.46666 z m -4.28266,-15.51731 v 9.97332 h 3.49066 q 0.704,0 1.02667,-0.352 0.352,-0.352 0.352,-1.08533 v -7.12799 q 0,-0.73334 -0.352,-1.056 -0.32267,-0.352 -1.02667,-0.352 z"
         style="font-family:Bungee;-inkscape-font-specification:Bungee;fill:#ffffff"
         id="path842" />
      <path
         d="m 358.72398,380.23605 -1.37867,4.45866 h 4.60533 l -1.37866,-4.45866 q -0.11734,-0.264 -0.264,-0.38133 -0.11734,-0.11733 -0.29333,-0.11733 h -0.73334 q -0.176,0 -0.32266,0.11733 -0.11734,0.11733 -0.23467,0.38133 z m -1.672,13.90399 q 0,0.55733 -0.264,0.82133 -0.23466,0.23466 -0.792,0.23466 h -4.31199 q -0.55733,0 -0.82133,-0.23466 -0.23467,-0.264 -0.23467,-0.82133 v -7.744 q 0,-0.87999 0.264,-2.02399 0.29333,-1.144 0.88,-2.66933 l 2.552,-6.65866 q 0.17599,-0.49867 0.52799,-0.73333 0.38134,-0.23467 0.968,-0.23467 h 7.89066 q 0.55733,0 0.90933,0.23467 0.38134,0.23466 0.55734,0.73333 l 2.55199,6.65866 q 0.58667,1.52533 0.85067,2.66933 0.29333,1.144 0.29333,2.02399 v 7.744 q 0,0.55733 -0.264,0.82133 -0.23466,0.23466 -0.792,0.23466 h -4.42933 q -0.58666,0 -0.87999,-0.23466 -0.264,-0.264 -0.264,-0.82133 v -4.10667 h -5.192 z"
         style="font-family:Bungee;-inkscape-font-specification:Bungee;fill:#ffffff"
         id="path844" />
      <path
         d="m 382.27861,395.19603 h -9.26932 q -0.55733,0 -0.82133,-0.23466 -0.23467,-0.264 -0.23467,-0.82133 v -3.432 q 0,-0.55733 0.23467,-0.792 0.264,-0.264 0.82133,-0.264 h 7.89066 q 0.38133,0 0.55733,-0.23467 0.20533,-0.264 0.20533,-0.61599 0,-0.49867 -0.20533,-0.73334 -0.176,-0.23466 -0.55733,-0.264 l -4.4,-0.616 q -2.05333,-0.29333 -3.31466,-1.34933 -1.232,-1.056 -1.232,-3.51999 v -3.08 q 0,-2.49333 1.61333,-3.81333 1.61333,-1.34933 4.45866,-1.34933 h 8.21333 q 0.55733,0 0.79199,0.264 0.264,0.23466 0.264,0.792 v 3.49066 q 0,0.55733 -0.264,0.82133 -0.23466,0.23467 -0.79199,0.23467 h -6.83466 q -0.38134,0 -0.58667,0.264 -0.20533,0.23467 -0.20533,0.616 0,0.38133 0.20533,0.64533 0.20533,0.264 0.58667,0.29333 l 4.37066,0.58667 q 2.05333,0.29333 3.31466,1.34933 1.26133,1.056 1.26133,3.52 v 3.07999 q 0,2.49333 -1.64266,3.84267 -1.61333,1.31999 -4.42933,1.31999 z"
         style="font-family:Bungee;-inkscape-font-specification:Bungee;fill:#ffffff"
         id="path846" />
      <path
         d="m 397.15058,395.19603 h -4.54666 q -0.55733,0 -0.82133,-0.23466 -0.23467,-0.264 -0.23467,-0.82133 v -19.00798 q 0,-0.55734 0.23467,-0.792 0.264,-0.264 0.82133,-0.264 h 4.54666 q 0.55734,0 0.792,0.264 0.264,0.23466 0.264,0.792 v 6.36532 h 4.89866 v -6.36532 q 0,-0.55734 0.23467,-0.792 0.264,-0.264 0.82133,-0.264 h 4.54666 q 0.55734,0 0.792,0.264 0.264,0.23466 0.264,0.792 v 19.00798 q 0,0.55733 -0.264,0.82133 -0.23466,0.23466 -0.792,0.23466 h -4.54666 q -0.55733,0 -0.82133,-0.23466 -0.23467,-0.264 -0.23467,-0.82133 v -6.512 h -4.89866 v 6.512 q 0,0.55733 -0.264,0.82133 -0.23466,0.23466 -0.792,0.23466 z"
         style="font-family:Bungee;-inkscape-font-specification:Bungee;fill:#ffffff"
         id="path848" />
    </g>
  </g>
</svg>
